<svg width="72" height="72" version="1.1" xmlns="http://www.w3.org/2000/svg" desc="Created with imagetracer.js version 1.2.6" ><path fill="rgb(71,136,110)" stroke="rgb(71,136,110)" stroke-width="1" opacity="0.8941176470588236" d="M 27 7 L 43 7.5 L 28.5 8 L 27.5 9 L 27 7 Z " /><path fill="rgb(71,136,110)" stroke="rgb(71,136,110)" stroke-width="1" opacity="0.8941176470588236" d="M 44.5 9 Q 49.9 7.1 49 10.5 L 47.5 10 Q 43.5 10.8 44.5 9 Z " /><path fill="rgb(71,136,110)" stroke="rgb(71,136,110)" stroke-width="1" opacity="0.8941176470588236" d="M 17 14 L 19 14.5 L 17.5 17 L 17 14 Z " /><path fill="rgb(71,136,110)" stroke="rgb(71,136,110)" stroke-width="1" opacity="0.8941176470588236" d="M 15.5 17 L 16 20.5 L 15 20.5 L 15.5 17 Z " /><path fill="rgb(71,136,110)" stroke="rgb(71,136,110)" stroke-width="1" opacity="0.8941176470588236" d="M 12 22 L 14 22.5 L 13 23.5 L 13 39 L 16 40.5 L 16 43.5 L 18 47 L 20 47.5 L 17 48 Q 18 43.8 15 44.5 L 15 40 L 12 39.5 L 12 22 Z " /><path fill="rgb(71,136,110)" stroke="rgb(71,136,110)" stroke-width="1" opacity="0.8941176470588236" d="M 55.5 39 L 58 39.5 L 55 40 L 55 45 L 53.5 45 L 54 43.5 Q 53.3 39.8 55.5 39 Z " /><path fill="rgb(71,136,110)" stroke="rgb(71,136,110)" stroke-width="1" opacity="0.8941176470588236" d="M 51.5 47 L 53 47.5 L 51 48 L 50.5 58 L 50 48.5 L 51.5 47 Z " /><path fill="rgb(71,136,110)" stroke="rgb(71,136,110)" stroke-width="1" opacity="0.8941176470588236" d="M 20.5 49 L 21 63 L 32 63 L 32 58.5 L 33 58.5 L 33 64 L 20 64 L 20.5 49 Z " /><path fill="rgb(71,136,110)" stroke="rgb(71,136,110)" stroke-width="1" opacity="0.8941176470588236" d="M 27.5 49 L 42.5 49 L 44 50.5 L 44 63 L 54.5 63 L 54.5 64 L 43 64 L 43 50 L 27 50 L 26.5 58 L 26 50.5 L 27.5 49 Z " /><path fill="rgb(65,147,114)" stroke="rgb(65,147,114)" stroke-width="1" opacity="0.984313725490196" d="M 28.5 8 L 42.5 8 L 44 9.5 L 42.5 10 L 41.5 9 L 28.5 9 L 24 11.5 L 24 13 L 21 13 Q 22.1 15.7 19.5 15 L 21.5 12 L 24 10.5 Q 23.1 7.5 27.5 9 L 28.5 8 Z " /><path fill="rgb(65,147,114)" stroke="rgb(65,147,114)" stroke-width="1" opacity="0.984313725490196" d="M 47.5 10 L 55 18.5 L 55 22 L 58 23.5 L 57.5 39 L 57 23 L 54 23 L 54 18 L 52 18 L 52 15 Q 49.3 16.1 50 13.5 L 47.5 10 Z " /><path fill="rgb(65,147,114)" stroke="rgb(65,147,114)" stroke-width="1" opacity="0.984313725490196" d="M 30.5 20 L 32.5 20 Q 37.3 18.7 36 22 L 30 22 L 30.5 20 Z " /><path fill="rgb(65,147,114)" stroke="rgb(65,147,114)" stroke-width="1" opacity="0.984313725490196" d="M 46.5 20 L 48.5 21 L 50.5 20 L 49.5 22 Q 44.4 23.3 46.5 20 Z " /><path fill="rgb(65,147,114)" stroke="rgb(65,147,114)" stroke-width="1" opacity="0.984313725490196" d="M 15.5 21 L 16 23 L 14 22.5 L 15.5 21 Z " /><path fill="rgb(65,147,114)" stroke="rgb(65,147,114)" stroke-width="1" opacity="0.984313725490196" d="M 43.5 22 L 45 24.5 L 43.5 28 L 43.5 22 Z " /><path fill="rgb(65,147,114)" stroke="rgb(65,147,114)" stroke-width="1" opacity="0.984313725490196" d="M 51 22 Q 55 20.6 53 27.5 L 51 26.5 L 51 22 Z " /><path fill="rgb(65,147,114)" stroke="rgb(65,147,114)" stroke-width="1" opacity="0.984313725490196" d="M 29.5 23 L 30 25.5 L 29 25.5 L 29.5 23 Z " /><path fill="rgb(65,147,114)" stroke="rgb(65,147,114)" stroke-width="1" opacity="0.984313725490196" d="M 13.5 38 L 16 39.5 L 14.5 39 L 13.5 38 Z " /><path fill="rgb(65,147,114)" stroke="rgb(65,147,114)" stroke-width="1" opacity="0.984313725490196" d="M 37.5 38 L 40 38.5 L 37.5 39 L 37.5 38 Z " /><path fill="rgb(65,147,114)" stroke="rgb(65,147,114)" stroke-width="1" opacity="0.984313725490196" d="M 16.5 41 L 18 44.5 L 16 43.5 L 16.5 41 Z " /><path fill="rgb(65,147,114)" stroke="rgb(65,147,114)" stroke-width="1" opacity="0.984313725490196" d="M 52.5 44 L 53 46.5 L 52 46.5 L 52.5 44 Z " /><path fill="rgb(65,147,114)" stroke="rgb(65,147,114)" stroke-width="1" opacity="0.984313725490196" d="M 25.5 51 L 26 56.5 L 25 56.5 L 25.5 51 Z " /><path fill="rgb(65,147,114)" stroke="rgb(65,147,114)" stroke-width="1" opacity="0.984313725490196" d="M 49.5 54 L 50 56.5 L 49 56.5 L 49.5 54 Z " /><path fill="rgb(65,147,114)" stroke="rgb(65,147,114)" stroke-width="1" opacity="0.984313725490196" d="M 26.5 58 L 32 58.5 L 26.5 59 L 26.5 58 Z " /><path fill="rgb(65,147,114)" stroke="rgb(65,147,114)" stroke-width="1" opacity="0.984313725490196" d="M 50.5 58 L 53 59.5 Q 52.3 62.1 55 61 L 55 63 L 44.5 63 L 44 61.5 L 45.5 62 L 52 62 L 52 59 L 50.5 58 Z " /><path fill="rgb(65,147,114)" stroke="rgb(65,147,114)" stroke-width="1" opacity="0.984313725490196" d="M 22.5 62 L 27 62.5 L 22.5 63 L 22.5 62 Z " /><path fill="rgb(205,216,211)" stroke="rgb(205,216,211)" stroke-width="1" opacity="0.10196078431372549" d="M 26 6 L 31 6.5 L 27 7 L 27 9 L 23 9 L 23 12 L 20 12 L 20 14 L 17 14 Q 18.3 18.1 15 17 L 15 22 L 12 22.5 L 12 29.5 L 11 29.5 Q 9.3 22.7 12.5 21 L 14 21 L 14 16 Q 16.7 17.1 16 14.5 L 19 13 L 19 11 L 22 11 L 22 8 Q 27.2 9.7 26 6 Z " /><path fill="rgb(205,216,211)" stroke="rgb(205,216,211)" stroke-width="1" opacity="0.10196078431372549" d="M 41.5 6 Q 44 9.2 50 8 L 50 11 L 52 11 Q 51 14 54 13 L 54 16 L 56 16 L 56 21 L 59 21.5 L 59 39.5 L 58 39.5 L 58 22 L 55 22 L 55 17 L 53 17 L 53 14 L 49 12 L 49 9 L 43.5 9 L 43 7 L 41.5 7 L 41.5 6 Z " /><path fill="rgb(205,216,211)" stroke="rgb(205,216,211)" stroke-width="1" opacity="0.10196078431372549" d="M 11.5 33 L 12 39.5 L 11 39.5 L 11.5 33 Z " /><path fill="rgb(205,216,211)" stroke="rgb(205,216,211)" stroke-width="1" opacity="0.10196078431372549" d="M 55.5 40 L 56 44.5 L 55 44.5 L 55.5 40 Z " /><path fill="rgb(205,216,211)" stroke="rgb(205,216,211)" stroke-width="1" opacity="0.10196078431372549" d="M 14.5 42 L 15 44.5 L 14 44.5 L 14.5 42 Z " /><path fill="rgb(205,216,211)" stroke="rgb(205,216,211)" stroke-width="1" opacity="0.10196078431372549" d="M 16.5 45 L 17 48 L 20 48.5 L 20 63.5 L 19 63.5 L 19 49.5 L 17.5 49 Q 15 48 16.5 45 Z " /><path fill="rgb(205,216,211)" stroke="rgb(205,216,211)" stroke-width="1" opacity="0.10196078431372549" d="M 53.5 45 L 54 47.5 L 52 49.5 L 51.5 56 L 51 48 Q 54.1 49.1 53.5 45 Z " /><path fill="rgb(205,216,211)" stroke="rgb(205,216,211)" stroke-width="1" opacity="0.10196078431372549" d="M 42.5 50 L 43 63.5 L 42 63.5 L 42.5 50 Z " /><path fill="rgb(205,216,211)" stroke="rgb(205,216,211)" stroke-width="1" opacity="0.10196078431372549" d="M 27.5 57 Q 37.3 53.8 34 63.5 L 30.5 65 L 30.5 64 L 33 64 L 33 58 L 27.5 58 L 27.5 57 Z " /><path fill="rgb(205,216,211)" stroke="rgb(205,216,211)" stroke-width="1" opacity="0.10196078431372549" d="M 51.5 57 L 54 57 Q 52.7 61.1 56 60 L 56 63.5 L 53.5 65 L 53.5 64 Q 56.5 64.7 55 61 L 53 61 Q 54.5 57.2 51.5 58 L 51.5 57 Z " /><path fill="rgb(54,146,109)" stroke="rgb(54,146,109)" stroke-width="1" opacity="0.996078431372549" d="M 25.5 10 L 27 10.5 L 24.5 12 L 25.5 10 Z " /><path fill="rgb(54,146,109)" stroke="rgb(54,146,109)" stroke-width="1" opacity="0.996078431372549" d="M 29.5 10 L 30 12.5 L 28 11.5 L 29.5 10 Z " /><path fill="rgb(54,146,109)" stroke="rgb(54,146,109)" stroke-width="1" opacity="0.996078431372549" d="M 43.5 10 Q 47.3 9.3 48 11.5 L 46.5 11 Q 42.5 11.8 43.5 10 Z " /><path fill="rgb(54,146,109)" stroke="rgb(54,146,109)" stroke-width="1" opacity="0.996078431372549" d="M 21 13 L 23 13.5 L 21.5 16 L 21 13 Z " /><path fill="rgb(54,146,109)" stroke="rgb(54,146,109)" stroke-width="1" opacity="0.996078431372549" d="M 25.5 14 L 26 16 L 28 16.5 L 24.5 18 L 24.5 17 L 26 16.5 L 24 15.5 L 25.5 14 Z " /><path fill="rgb(54,146,109)" stroke="rgb(54,146,109)" stroke-width="1" opacity="0.996078431372549" d="M 16.5 18 L 17.5 20 L 16.5 18 Z " /><path fill="rgb(54,146,109)" stroke="rgb(54,146,109)" stroke-width="1" opacity="0.996078431372549" d="M 53.5 18 L 54 22.5 L 53 22.5 L 53.5 18 Z " /><path fill="rgb(54,146,109)" stroke="rgb(54,146,109)" stroke-width="1" opacity="0.996078431372549" d="M 45.5 21 L 44.5 23 L 45.5 21 Z " /><path fill="rgb(54,146,109)" stroke="rgb(54,146,109)" stroke-width="1" opacity="0.996078431372549" d="M 24 22 Q 27 21 26 24 Q 23 25 24 22 Z " /><path fill="rgb(54,146,109)" stroke="rgb(54,146,109)" stroke-width="1" opacity="0.996078431372549" d="M 13.5 23 L 14 37.5 L 13 37.5 L 13.5 23 Z " /><path fill="rgb(54,146,109)" stroke="rgb(54,146,109)" stroke-width="1" opacity="0.996078431372549" d="M 55.5 23 L 57 23.5 L 57 38.5 L 56 38.5 L 56 24.5 L 55.5 23 Z " /><path fill="rgb(54,146,109)" stroke="rgb(54,146,109)" stroke-width="1" opacity="0.996078431372549" d="M 18.5 24 L 20 28 Q 16.2 29.2 18.5 24 Z " /><path fill="rgb(54,146,109)" stroke="rgb(54,146,109)" stroke-width="1" opacity="0.996078431372549" d="M 36.5 25 L 38 28.5 L 35.5 29 Q 30.1 28.4 28 30 L 29.5 26 L 30 28 L 36 28 L 36.5 25 Z " /><path fill="rgb(54,146,109)" stroke="rgb(54,146,109)" stroke-width="1" opacity="0.996078431372549" d="M 44.5 25 L 45 28 L 51.5 27 L 50.5 29 Q 45.8 27.8 44.5 30 L 44 27.5 L 44.5 25 Z " /><path fill="rgb(54,146,109)" stroke="rgb(54,146,109)" stroke-width="1" opacity="0.996078431372549" d="M 53.5 26 L 55 29.5 L 54 29.5 L 53.5 26 Z " /><path fill="rgb(54,146,109)" stroke="rgb(54,146,109)" stroke-width="1" opacity="0.996078431372549" d="M 22 32 Q 25 31 24 34 Q 21 35 22 32 Z " /><path fill="rgb(54,146,109)" stroke="rgb(54,146,109)" stroke-width="1" opacity="0.996078431372549" d="M 30 32 Q 33 31 32 34 L 34.5 34 L 36.5 34 Q 42.5 32.5 44 35.5 L 42.5 39 L 40 38.5 L 43 38 L 43 35 L 36 35 L 37 38.5 L 35 37.5 L 34.5 35 L 32 36 L 30 32 Z " /><path fill="rgb(54,146,109)" stroke="rgb(54,146,109)" stroke-width="1" opacity="0.996078431372549" d="M 44 32 Q 47 31 46 34 Q 43 35 44 32 Z " /><path fill="rgb(54,146,109)" stroke="rgb(54,146,109)" stroke-width="1" opacity="0.996078431372549" d="M 48 38 L 50 38 L 52 42 L 50 42 L 48 38 Z " /><path fill="rgb(54,146,109)" stroke="rgb(54,146,109)" stroke-width="1" opacity="0.996078431372549" d="M 18 40 Q 21 39 20 42 Q 17 43 18 40 Z " /><path fill="rgb(54,146,109)" stroke="rgb(54,146,109)" stroke-width="1" opacity="0.996078431372549" d="M 22 42 L 26 44 Q 25 41 28 42 L 30 46 L 26 44 L 24.5 48 L 24 44 Q 21 45 22 42 Z " /><path fill="rgb(54,146,109)" stroke="rgb(54,146,109)" stroke-width="1" opacity="0.996078431372549" d="M 38 44 Q 41 43 40 46 L 38 46 Q 39.3 50.1 36 49 L 36 46 Q 39 47 38 44 Z " /><path fill="rgb(54,146,109)" stroke="rgb(54,146,109)" stroke-width="1" opacity="0.996078431372549" d="M 21.5 47 L 22 61.5 L 21 61.5 L 21.5 47 Z " /><path fill="rgb(54,146,109)" stroke="rgb(54,146,109)" stroke-width="1" opacity="0.996078431372549" d="M 44.5 48 Q 46.8 47.3 46 49.5 L 46.5 51 L 44.5 48 Z " /><path fill="rgb(54,146,109)" stroke="rgb(54,146,109)" stroke-width="1" opacity="0.996078431372549" d="M 47.5 48 L 50 48.5 L 47.5 49 L 47.5 48 Z " /><path fill="rgb(54,146,109)" stroke="rgb(54,146,109)" stroke-width="1" opacity="0.996078431372549" d="M 27.5 59 L 30 59.5 L 26.5 61 L 27.5 59 Z " /><path fill="rgb(54,146,109)" stroke="rgb(54,146,109)" stroke-width="1" opacity="0.996078431372549" d="M 31.5 59 L 32 61.5 L 31 61.5 L 31.5 59 Z " /><path fill="rgb(37,73,58)" stroke="rgb(37,73,58)" stroke-width="1" opacity="0.996078431372549" d="M 30 22 L 36 22 L 36 28 L 30 28 L 30 22 Z " /><path fill="rgb(37,73,58)" stroke="rgb(37,73,58)" stroke-width="1" opacity="0.996078431372549" d="M 45 22 L 51 22 L 51 28 L 45 28 L 45 22 Z " /><path fill="rgb(37,73,58)" stroke="rgb(37,73,58)" stroke-width="1" opacity="0.996078431372549" d="M 36 35 L 43 35 L 43 38 L 36 38 L 36 35 Z " /><path fill="rgb(56,146,111)" stroke="rgb(56,146,111)" stroke-width="1" opacity="0.996078431372549" d="M 28.5 9 L 41.5 9 L 43.5 11 L 49 12.5 L 48.5 14 L 51 15.5 Q 53.8 17.5 53 22 L 51 22 Q 52.1 19.3 49.5 20 L 47.5 21 Q 46 18.5 44.5 22 Q 42.3 21.3 43 23.5 L 42 25.5 L 43 28 Q 45.1 29.6 50.5 29 L 54 28 L 53 23 L 56 24.5 L 56 38.5 L 54.5 40 L 53 40.5 L 54 42.5 L 49.5 48 L 47 48.5 L 50 49.5 L 50 51.5 L 49 56.5 L 52 61.5 L 45.5 62 L 44 58.5 L 44 49.5 L 42.5 48 L 38 49 Q 39.3 44.9 36 46 L 36 49 L 26.5 49 L 26 50.5 Q 23.8 51.8 25 56.5 L 27.5 60 L 30.5 59 L 31 63 L 22.5 62 L 21 62.5 L 22 61.5 L 22 47.5 Q 20 49.2 18 45.5 L 14 36.5 L 14 34.5 L 14 23.5 L 15.5 23 Q 18.3 21.8 16 20.5 L 18.5 15 L 22 15.5 L 25.5 11 L 28.5 9 Z M 30 10 L 28 12 L 30 13 L 30 10 Z M 26 14 L 24 16 L 26 16 L 26 14 Z M 27 16 L 25 17 L 25 18 L 28 17 L 27 16 Z M 31 20 L 29 23 Q 28 28 31 29 Q 36 30 37 28 Q 38 23 36 22 Q 37 18 33 20 L 31 20 Z M 24 22 Q 23 25 26 24 Q 27 21 24 22 Z M 19 24 Q 16 29 20 28 L 19 24 Z M 29 28 Q 27 31 30 30 L 29 28 Z M 22 32 Q 21 35 24 34 Q 25 31 22 32 Z M 30 32 Q 29 35 32 34 Q 33 31 30 32 Z M 44 32 Q 43 35 46 34 Q 47 31 44 32 Z M 36 33 L 35 36 L 37 39 Q 44 41 45 37 L 43 34 L 36 33 Z M 32 34 L 32 36 L 35 35 L 32 34 Z M 48 38 Q 47 41 50 40 Q 51 37 48 38 Z M 18 40 Q 17 43 20 42 Q 21 39 18 40 Z M 50 40 Q 49 43 52 42 Q 53 39 50 40 Z M 22 42 Q 21 45 24 44 Q 25 41 22 42 Z M 26 42 Q 25 45 28 44 Q 29 41 26 42 Z M 24 44 L 24 48 L 26 47 Q 27 43 24 44 Z M 28 44 Q 27 47 30 46 Q 31 43 28 44 Z M 38 44 Q 37 47 40 46 Q 41 43 38 44 Z M 45 48 L 46 50 Q 47 47 45 48 Z " /><path fill="rgb(0,0,0)" stroke="rgb(0,0,0)" stroke-width="1" opacity="0" d="M 0 0 L 72 0 L 72 72 L 0 72 L 0 0 Z M 26 6 Q 27 10 22 8 L 22 11 L 19 11 L 19 13 L 16 15 Q 17 17 14 16 L 14 21 L 11 23 Q 9 29 12 31 L 11 34 L 11 40 L 15 40 L 14 43 Q 13 46 16 45 L 18 49 L 19 50 L 19 64 L 30 64 L 31 65 L 34 64 L 34 57 L 27 57 Q 25 52 29 50 L 42 50 L 42 64 L 53 64 L 54 65 L 56 64 L 56 60 Q 53 61 54 57 L 51 57 Q 54 55 52 50 L 54 48 L 54 45 L 56 45 L 56 40 L 59 40 L 59 22 L 56 21 L 56 16 L 54 16 L 54 13 Q 51 14 52 11 L 50 11 L 50 8 Q 44 10 43 6 L 41 7 L 32 7 L 26 6 Z " /></svg>